trial_2_IK.mot
nRows=9
nColumns=42

name trial_2_IK.mot
datacolumns 42
datarows 9
range 4.4800000000 4.5600000000
endheader
time	pelvis_tilt	pelvis_list	pelvis_rotation	pelvis_tx	pelvis_ty	pelvis_tz	hip_flexion_r	hip_adduction_r	hip_rotation_r	knee_angle_r	knee_vv_r	knee_rot_r	ankle_angle_r	subtalar_angle_r	mtp_angle_r	hip_flexion_l	hip_adduction_l	hip_rotation_l	knee_angle_l	knee_vv_l	knee_rot_l	ankle_angle_l	subtalar_angle_l	mtp_angle_l	lumbar_extension	lumbar_bending	lumbar_rotation	arm_flex_r	arm_add_r	arm_rot_r	elbow_flex_r	pro_sup_r	wrist_flex_r	wrist_dev_r	arm_flex_l	arm_add_l	arm_rot_l	elbow_flex_l	pro_sup_l	wrist_flex_l	wrist_dev_l
        4.4800000000	        9.9428420500	       -2.1074856200	        1.5558410500	        0.1145021800	        0.9141435700	        0.0156442300	       -0.9030402100	        5.9125013400	        2.7497061300	      -16.0925159900	        0.0000000000	        0.0000000000	        9.3519105100	        0.0000000000	        0.0000000000	        5.0005653900	       -3.6244668600	       -3.4665783600	      -57.6555367200	        0.0000000000	        0.0000000000	       -3.7846170800	        0.0000000000	        0.0000000000	      -24.2737722700	        0.4969513600	        0.8532867600	       18.3206861300	      -18.8768655300	       32.2735869600	       19.8766989600	       86.5166270600	        0.0000000000	        0.0000000000	        0.1666082700	       -9.5007976900	       42.7603547300	        0.6512945600	       85.9436692700	        0.0000000000	        0.0000000000	
        4.4900000000	        9.6920399400	       -1.9396623200	        1.5836572100	        0.1138230200	        0.9142810100	        0.0159359600	       -1.2807775100	        5.8035627100	        2.9323245600	      -15.9103555100	        0.0000000000	        0.0000000000	        9.8112493300	        0.0000000000	        0.0000000000	        6.5408041000	       -3.5184210600	       -3.7239914800	      -57.3582906700	        0.0000000000	        0.0000000000	       -2.8427678500	        0.0000000000	        0.0000000000	      -24.0702088900	        0.1903196800	        1.0475501700	       19.0578735200	      -19.2554532500	       31.5029373800	       20.6405726300	       86.5166270600	        0.0000000000	        0.0000000000	       -0.4215215500	       -9.5861449200	       42.6188627700	        0.7251006800	       85.9436692700	        0.0000000000	        0.0000000000	
        4.5000000000	        9.4442487900	       -1.7538656300	        1.6047665200	        0.1131464400	        0.9144167400	        0.0161990900	       -1.6719759700	        5.6587378300	        3.0388735200	      -15.7056061100	        0.0000000000	        0.0000000000	       10.2426657700	        0.0000000000	        0.0000000000	        7.9796500900	       -3.3924022600	       -4.0221875400	      -56.7255284500	        0.0000000000	        0.0000000000	       -1.9368289800	        0.0000000000	        0.0000000000	      -23.8581524000	       -0.1353652800	        1.2435177900	       19.7303002100	      -19.6145328400	       30.6468311200	       21.4097174900	       86.5166270600	        0.0000000000	        0.0000000000	       -0.9770196900	       -9.7011142900	       42.5003301500	        0.8195207900	       85.9436692700	        0.0000000000	        0.0000000000	
        4.5100000000	        9.2099607200	       -1.5461423000	        1.6199291600	        0.1124827200	        0.9145733500	        0.0164357900	       -2.0946505200	        5.4761459500	        3.0659100100	      -15.4665692400	        0.0000000000	        0.0000000000	       10.6448192500	        0.0000000000	        0.0000000000	        9.2965057800	       -3.2427377500	       -4.3593074700	      -55.7613499000	        0.0000000000	        0.0000000000	       -1.0729807200	        0.0000000000	        0.0000000000	      -23.6565773500	       -0.4825924200	        1.4441886500	       20.3359013200	      -19.9534963200	       29.7129060700	       22.1855199900	       86.5166270600	        0.0000000000	        0.0000000000	       -1.4886766100	       -9.8435198200	       42.3915334500	        0.9311929700	       85.9436692700	        0.0000000000	        0.0000000000	
        4.5200000000	        8.9972683300	       -1.3169466400	        1.6282608500	        0.1118541400	        0.9147414300	        0.0166478400	       -2.5640592300	        5.2593575500	        3.0295494700	      -15.1838227700	        0.0000000000	        0.0000000000	       11.0184283700	        0.0000000000	        0.0000000000	       10.4737438700	       -3.0693204600	       -4.7371107500	      -54.4727364700	        0.0000000000	        0.0000000000	       -0.2696854700	        0.0000000000	        0.0000000000	      -23.4783500900	       -0.8514519300	        1.6539821500	       20.8734600500	      -20.2737973100	       28.7152695300	       22.9665881500	       86.5166270600	        0.0000000000	        0.0000000000	       -1.9483613800	      -10.0100641900	       42.2698305600	        1.0598474400	       85.9436692700	        0.0000000000	        0.0000000000	
        4.5300000000	        8.8114777600	       -1.0707929900	        1.6265047100	        0.1112783500	        0.9149094500	        0.0168395900	       -3.0895264400	        5.0152111600	        2.9587858700	      -14.8547824200	        0.0000000000	        0.0000000000	       11.3664274000	        0.0000000000	        0.0000000000	       11.4972267300	       -2.8753778200	       -5.1600762700	      -52.8678509200	        0.0000000000	        0.0000000000	        0.4508403700	        0.0000000000	        0.0000000000	      -23.3295547000	       -1.2389772300	        1.8786597900	       21.3434441300	      -20.5788637400	       27.6738741300	       23.7488541900	       86.5166270600	        0.0000000000	        0.0000000000	       -2.3525492000	      -10.1962676300	       42.1083660800	        1.2073207500	       85.9436692700	        0.0000000000	        0.0000000000	
        4.5400000000	        8.6557540600	       -0.8135932000	        1.6086206100	        0.1107580400	        0.9150716900	        0.0170034900	       -3.6730635900	        4.7514033400	        2.8862708600	      -14.4842823300	        0.0000000000	        0.0000000000	       11.6936417500	        0.0000000000	        0.0000000000	       12.3582318800	       -2.6663685200	       -5.6333732000	      -50.9560263500	        0.0000000000	        0.0000000000	        1.0694881600	        0.0000000000	        0.0000000000	      -23.2109594400	       -1.6398423200	        2.1251485800	       21.7486622300	      -20.8730622600	       26.6134696200	       24.5260821800	       86.5166270600	        0.0000000000	        0.0000000000	       -2.7037672000	      -10.3967844300	       41.8816437600	        1.3759743400	       85.9436692700	        0.0000000000	        0.0000000000	
        4.5500000000	        8.5310495100	       -0.5508470800	        1.5666555500	        0.1103002100	        0.9152147900	        0.0171281800	       -4.3107976600	        4.4745517800	        2.8394283100	      -14.0823787800	        0.0000000000	        0.0000000000	       12.0060545100	        0.0000000000	        0.0000000000	       13.0546117800	       -2.4477477200	       -6.1605702400	      -48.7494976700	        0.0000000000	        0.0000000000	        1.5734986400	        0.0000000000	        0.0000000000	      -23.1197273200	       -2.0475500800	        2.3997976500	       22.0945862800	      -21.1602086400	       25.5620168100	       25.2907157600	       86.5166270600	        0.0000000000	        0.0000000000	       -3.0093355000	      -10.6058308800	       41.5703834100	        1.5674071100	       85.9436692700	        0.0000000000	        0.0000000000	
        4.5600000000	        8.4357420800	       -0.2879710500	        1.4933362300	        0.1099246400	        0.9153136300	        0.0172164400	       -4.9953652500	        4.1893650000	        2.8343480400	      -13.6607318600	        0.0000000000	        0.0000000000	       12.3097970300	        0.0000000000	        0.0000000000	       13.5901735400	       -2.2222882600	       -6.7411432100	      -46.2649555400	        0.0000000000	        0.0000000000	        1.9560164700	        0.0000000000	        0.0000000000	      -23.0506831700	       -2.4551067800	        2.7052661600	       22.3893443600	      -21.4426729600	       24.5485358100	       26.0347572700	       86.5166270600	        0.0000000000	        0.0000000000	       -3.2775406100	      -10.8174369600	       41.1648687900	        1.7819177400	       85.9436692700	        0.0000000000	        0.0000000000	
